HIERARCHY
ROOT Hips
{
	OFFSET 0.00000 0.00000 0.00000
	CHANNELS 6 Xposition Yposition Zposition Zrotation Yrotation Xrotation 
	JOINT LHipJoint
	{
		OFFSET 0 0 0
		CHANNELS 3 Zrotation Yrotation Xrotation
		JOINT LeftHip
		{
			OFFSET 1.53794 -1.55850 0.93568
			CHANNELS 3 Zrotation Yrotation Xrotation
			JOINT LeftKnee
			{
				OFFSET 2.28545 -6.27922 0.00000
				CHANNELS 3 Zrotation Yrotation Xrotation
				JOINT LeftAnkle
				{
					OFFSET 2.37329 -6.52057 0.00000
					CHANNELS 3 Zrotation Yrotation Xrotation
					JOINT LeftToe
					{
						OFFSET 0.14846 -0.40788 2.09160
						CHANNELS 3 Zrotation Yrotation Xrotation
						End Site
						{
							OFFSET 0.00000 -0.00000 1.07536
						}
					}
				}
			}
		}
	}
	JOINT RHipJoint
	{
		OFFSET 0 0 0
		CHANNELS 3 Zrotation Yrotation Xrotation
		JOINT RightHip
		{
			OFFSET -1.78290 -1.55850 0.93568
			CHANNELS 3 Zrotation Yrotation Xrotation
			JOINT RightKnee
			{
				OFFSET -2.24144 -6.15831 0.00000
				CHANNELS 3 Zrotation Yrotation Xrotation
				JOINT RightAnkle
				{
					OFFSET -2.35091 -6.45907 0.00000
					CHANNELS 3 Zrotation Yrotation Xrotation
					JOINT RightToe
					{
						OFFSET -0.14428 -0.39641 2.07944
						CHANNELS 3 Zrotation Yrotation Xrotation
						End Site
						{
							OFFSET -0.00000 -0.00000 1.06864
						}
					}
				}
			}
		}
	}
	JOINT lowerback
	{
		OFFSET 0 0 0
		CHANNELS 3 Zrotation Yrotation Xrotation
		JOINT Chest
		{
			OFFSET -0.08841 2.11430 -0.15818
			CHANNELS 3 Zrotation Yrotation Xrotation
			JOINT Chest2
			{
				OFFSET -0.00033 2.12605 -0.08097
				CHANNELS 3 Zrotation Yrotation Xrotation
				JOINT lowerneck
				{
					OFFSET 0 0 0
					CHANNELS 3 Zrotation Yrotation Xrotation
					JOINT Neck
					{
						OFFSET 0.04431 1.59447 0.43193
						CHANNELS 3 Zrotation Yrotation Xrotation
						JOINT Head
						{
							OFFSET 0.00455 1.62017 -0.58852
							CHANNELS 3 Zrotation Yrotation Xrotation
							End Site
							{
								OFFSET -0.00920 1.72955 -0.25850
							}
						}
					}
				}
				JOINT LeftCollar
				{
					OFFSET 0 0 0
					CHANNELS 3 Zrotation Yrotation Xrotation
					JOINT LeftShoulder
					{
						OFFSET 2.86490 1.49927 -0.33774
CHANNELS 3 Zrotation Xrotation Yrotation
						JOINT LeftElbow
						{
OFFSET 0 -4.874080 0.000000
CHANNELS 3 Zrotation Xrotation Yrotation
							JOINT LeftWrist
							{
OFFSET 0 -2.767290 0.000000
CHANNELS 3 Zrotation Xrotation Yrotation
								JOINT lhand
								{
									OFFSET 0 0 0
CHANNELS 3 Zrotation Xrotation Yrotation
									JOINT LFingers
									{
OFFSET 0 -0.989220 0.000000
CHANNELS 3 Zrotation Xrotation Yrotation
										End Site
										{
OFFSET 0 -0.797530 0.000000
										}
									}
								}
								JOINT LThumb
								{
OFFSET 0 0.000000 0.000000
CHANNELS 3 Zrotation Xrotation Yrotation
									End Site
									{
OFFSET 0 -0.809720 0.809720
									}
								}
							}
						}
					}
				}
				JOINT RightCollar
				{
					OFFSET 0 0 0
					CHANNELS 3 Zrotation Yrotation Xrotation
					JOINT RightShoulder
					{
						OFFSET -2.94414 1.45463 -0.25291
CHANNELS 3 Zrotation Xrotation Yrotation
						JOINT RightElbow
						{
OFFSET 0 -4.714040 0.000000
CHANNELS 3 Zrotation Xrotation Yrotation
							JOINT RightWrist
							{
OFFSET 0 -2.834680 0.000000
CHANNELS 3 Zrotation Xrotation Yrotation
								JOINT rhand
								{
									OFFSET 0 0 0
CHANNELS 3 Zrotation Xrotation Yrotation
									JOINT RFingers
									{
OFFSET 0 -0.868200 0.000000
CHANNELS 3 Zrotation Xrotation Yrotation
										End Site
										{
OFFSET 0 -0.699960 0.000000
										}
									}
								}
								JOINT RThumb
								{
OFFSET 0 0.000000 0.000000
CHANNELS 3 Zrotation Xrotation Yrotation
									End Site
									{
OFFSET 0 -0.710650 0.710650
									}
								}
							}
						}
					}
				}
			}
		}
	}
}
MOTION
Frames: 12
Frame Time: 0.008333333333333333
1.796832 15.273447 10.461626 -184.459723 -1.235124 -154.557648 0.000000 0.000000 0.000000 -20.981437 -12.204019 -29.501715 8.707463 16.610062 55.064428 -0.740368 15.897411 -0.179009 0.962595 -6.246527 -17.501596 0.000000 0.000000 0.000000 19.411624 14.611673 -25.461587 -8.178337 -16.239091 53.187267 0.835911 -16.533089 -10.613613 -3.785557 11.869473 -35.271748 -4.004289 0.225245 7.592934 -1.273928 -0.197274 1.742597 0.954414 -0.140505 -2.449297 1.791780 -0.197307 -34.993928 1.144815 -3.360221 35.992992 -0.758548 -1.185562 19.954274 0.000000 0.000000 0.000000 16.382807 -19.330168 -39.734166 61.288994 -56.636622 35.417180 30.044466 43.580917 -13.454497 0.000000 0.000000 0.000000 -7.125000 0.000000 0.000000 2.505314 45.415437 -0.029104 0.000000 0.000000 0.000000 -12.614532 -15.334033 40.665244 -93.099815 -59.959567 -62.684102 -9.379059 4.828610 12.255115 0.000000 0.000000 0.000000 7.125000 0.000000 0.000000 15.912405 41.843018 1.275001
1.804440 15.435381 10.245266 -184.491229 -1.471692 -154.920503 0.000000 0.000000 0.000000 -21.030201 -11.648764 -27.979782 8.209780 16.263834 53.302803 -0.472782 13.838553 2.248428 0.901360 -6.046254 -16.920027 0.000000 0.000000 0.000000 19.653732 13.800304 -23.633840 -7.536791 -15.753583 50.852560 0.791462 -15.736335 -7.528612 -3.732005 11.794534 -35.009533 -4.078553 0.088623 6.625153 -1.219581 -0.315275 1.663731 1.059067 -0.198543 -1.985109 1.762723 -0.095816 -34.490709 1.116623 -3.377009 36.638294 -0.793083 -1.241971 20.230190 0.000000 0.000000 0.000000 16.529227 -19.174050 -39.619354 62.935398 -57.032665 36.796067 30.516445 44.467543 -13.979934 0.000000 0.000000 0.000000 -7.125000 0.000000 0.000000 2.911980 46.079294 -0.081965 0.000000 0.000000 0.000000 -12.890620 -14.827003 41.087842 -94.360720 -59.924744 -63.775452 -9.244502 5.524742 12.234533 0.000000 0.000000 0.000000 7.125000 0.000000 0.000000 16.022800 41.810248 1.297799
1.811967 15.599902 10.027643 -184.532715 -1.702353 -155.291504 0.000000 0.000000 0.000000 -21.072102 -11.132206 -26.480070 7.728901 15.915591 51.579304 -0.214503 11.799288 4.771714 0.822833 -5.787323 -16.168778 0.000000 0.000000 0.000000 19.860687 13.006206 -21.829800 -6.912252 -15.256406 48.539667 0.724670 -14.928725 -4.338353 -3.658575 11.691590 -34.649554 -4.167155 -0.048162 5.687455 -1.167901 -0.437124 1.577085 1.167345 -0.258638 -1.544648 1.730305 0.012639 -33.978181 1.088472 -3.395914 37.309890 -0.829472 -1.302718 20.523317 0.000000 0.000000 0.000000 16.663344 -18.960517 -39.466923 64.590030 -57.413209 38.185546 30.980908 45.312906 -14.479423 0.000000 0.000000 0.000000 -7.125000 0.000000 0.000000 3.316467 46.715390 -0.140875 0.000000 0.000000 0.000000 -13.158499 -14.280339 41.495469 -95.483800 -59.885807 -64.747287 -9.112103 6.184070 12.199389 0.000000 0.000000 0.000000 7.125000 0.000000 0.000000 16.127166 41.763547 1.325831
1.819206 15.771200 9.809331 -184.609806 -1.904759 -155.681457 0.000000 0.000000 0.000000 -21.121813 -10.768812 -25.070407 7.316074 15.585954 50.048825 0.032405 10.053773 7.552052 0.692908 -5.304304 -14.782536 0.000000 0.000000 0.000000 19.958240 12.322602 -20.142628 -6.361279 -14.755954 46.390102 0.586953 -14.260150 -0.834474 -3.490215 11.446337 -33.803841 -4.295784 -0.175758 4.864099 -1.131957 -0.557309 1.472980 1.277288 -0.318503 -1.183727 1.647291 0.129193 -33.471339 1.108562 -3.440835 38.046381 -0.845532 -1.382244 20.876285 0.000000 0.000000 0.000000 16.788790 -18.655556 -39.339819 66.251381 -57.748153 39.589668 31.459040 46.103710 -14.933601 0.000000 0.000000 0.000000 -7.125000 0.000000 0.000000 3.746107 47.308931 -0.218104 0.000000 0.000000 0.000000 -13.421900 -13.664817 41.809488 -96.539746 -59.834809 -65.660314 -8.993314 6.586346 12.092803 0.000000 0.000000 0.000000 7.125000 0.000000 0.000000 16.199659 41.649137 1.379420
1.826220 15.944116 9.591782 -184.695883 -2.098131 -156.072518 0.000000 0.000000 0.000000 -21.177132 -10.464055 -23.703406 6.931784 15.271787 48.611513 0.279700 8.436667 10.330743 0.567315 -4.813469 -13.379145 0.000000 0.000000 0.000000 20.026484 11.687088 -18.511079 -5.840355 -14.265716 44.325810 0.420774 -13.685721 2.748565 -3.304128 11.168703 -32.854415 -4.429851 -0.297801 4.081794 -1.102159 -0.673049 1.364194 1.382861 -0.376225 -0.850240 1.554664 0.248559 -32.972125 1.141562 -3.495002 38.792526 -0.857318 -1.467196 21.244639 0.000000 0.000000 0.000000 16.920586 -18.336337 -39.308315 67.901611 -58.066965 40.986897 31.798126 46.637245 -15.301004 0.000000 0.000000 0.000000 -7.125000 0.000000 0.000000 4.047487 47.781896 -0.278190 0.000000 0.000000 0.000000 -13.683254 -13.033988 42.079678 -97.646483 -59.775563 -66.616904 -8.880036 6.891320 11.958039 0.000000 0.000000 0.000000 7.125000 0.000000 0.000000 16.259548 41.508004 1.443108
1.832680 16.120609 9.376234 -184.801968 -2.270771 -156.464855 0.000000 0.000000 0.000000 -21.246117 -10.296333 -22.437852 6.614714 14.995551 47.396038 0.528912 7.123048 13.084274 0.456963 -4.320973 -11.983799 0.000000 0.000000 0.000000 20.028914 11.165197 -17.011842 -5.390056 -13.801786 42.465646 0.187802 -13.340026 6.507890 -3.080579 10.820104 -31.680130 -4.574518 -0.406435 3.394848 -1.086750 -0.777593 1.244893 1.477152 -0.428497 -0.580227 1.441644 0.374439 -32.491897 1.203554 -3.570625 39.557998 -0.859866 -1.564450 21.647348 0.000000 0.000000 0.000000 17.069283 -17.988211 -39.518530 69.522936 -58.348358 42.365352 31.781531 46.519188 -15.450827 0.000000 0.000000 0.000000 -7.125000 0.000000 0.000000 4.019751 47.950862 -0.293066 0.000000 0.000000 0.000000 -13.939755 -12.369741 42.245740 -98.888213 -59.696266 -67.689371 -8.779700 6.969135 11.757248 0.000000 0.000000 0.000000 7.125000 0.000000 0.000000 16.289891 41.304250 1.530465
1.838506 16.299039 9.163609 -184.912280 -2.431717 -156.836761 0.000000 0.000000 0.000000 -21.324402 -10.239924 -21.299038 6.365488 14.771695 46.428373 0.790910 6.152842 15.768166 0.340833 -3.707760 -10.260576 0.000000 0.000000 0.000000 19.995555 10.749122 -15.670836 -5.006721 -13.384706 40.838215 -0.114354 -13.229002 10.351722 -2.830470 10.406302 -30.311576 -4.706257 -0.501189 2.770921 -1.083177 -0.867413 1.117525 1.550731 -0.473231 -0.354351 1.326688 0.501939 -32.027027 1.278509 -3.660197 40.299306 -0.859914 -1.667728 22.052029 0.000000 0.000000 0.000000 17.243519 -17.635225 -40.007976 71.219115 -58.615449 43.811722 31.370589 45.660201 -15.439987 0.000000 0.000000 0.000000 -7.125000 0.000000 0.000000 3.619083 47.873250 -0.259507 0.000000 0.000000 0.000000 -14.189915 -11.684605 42.313135 -100.297016 -59.589528 -68.904818 -8.692397 6.905169 11.502879 0.000000 0.000000 0.000000 7.125000 0.000000 0.000000 16.294873 41.050017 1.636280
1.843899 16.478791 8.952980 -185.025477 -2.584681 -157.194725 0.000000 0.000000 0.000000 -21.409033 -10.259482 -20.246721 6.162563 14.583586 45.629831 1.061634 5.417002 18.404530 0.220762 -3.012161 -8.313588 0.000000 0.000000 0.000000 19.937771 10.405264 -14.437819 -4.669086 -12.999599 39.369618 -0.463723 -13.278133 14.253225 -2.562235 9.948003 -28.810442 -4.829174 -0.586472 2.190001 -1.087681 -0.947185 0.984652 1.610174 -0.512820 -0.158597 1.210409 0.630545 -31.572639 1.362310 -3.759289 41.024123 -0.858254 -1.775117 22.458057 0.000000 0.000000 0.000000 17.435183 -17.278921 -40.687988 72.966378 -58.872779 45.304440 30.690518 44.295554 -15.319500 0.000000 0.000000 0.000000 -7.125000 0.000000 0.000000 2.963904 47.627358 -0.192892 0.000000 0.000000 0.000000 -14.435748 -10.985214 42.313194 -101.819842 -59.464063 -70.217844 -8.613989 6.744441 11.211945 0.000000 0.000000 0.000000 7.125000 0.000000 0.000000 16.282546 40.761335 1.754693
1.848593 16.660102 8.749930 -185.119860 -2.728883 -157.491406 0.000000 0.000000 0.000000 -21.484633 -10.420042 -19.471034 6.078010 14.503259 45.293538 1.319188 4.999453 20.583858 0.141222 -2.358546 -6.500506 0.000000 0.000000 0.000000 19.866495 10.212192 -13.514330 -4.438856 -12.719048 38.331177 -0.915821 -13.658349 18.091188 -2.270669 9.392673 -27.043752 -4.902366 -0.647834 1.689877 -1.100356 -0.999540 0.847478 1.632741 -0.538271 -0.014718 1.039084 0.734423 -31.264038 1.500351 -3.888484 41.481663 -0.852079 -1.886861 23.106095 0.000000 0.000000 0.000000 17.660983 -16.951861 -41.702955 74.760786 -59.094254 46.843336 29.367630 41.948244 -14.919535 0.000000 0.000000 0.000000 -7.125000 0.000000 0.000000 1.731329 46.978401 -0.100152 0.000000 0.000000 0.000000 -14.664056 -10.284048 42.143975 -103.655851 -59.273230 -71.796695 -8.540902 6.418520 10.877253 0.000000 0.000000 0.000000 7.125000 0.000000 0.000000 16.255543 40.430938 1.888103
1.853007 16.841442 8.549675 -185.201896 -2.872733 -157.760581 0.000000 0.000000 0.000000 -21.550921 -10.618310 -18.804639 6.036280 14.463355 45.127114 1.563361 4.649578 22.576650 0.074522 -1.735121 -4.774721 0.000000 0.000000 0.000000 19.798484 10.057779 -12.707399 -4.245012 -12.479123 37.449173 -1.397068 -14.117668 21.869681 -1.970241 8.791915 -25.154228 -4.952687 -0.701418 1.207409 -1.113517 -1.042510 0.709551 1.641918 -0.558888 0.117555 0.881689 0.834491 -30.954270 1.630331 -4.016038 41.920744 -0.846926 -1.996081 23.698865 0.000000 0.000000 0.000000 17.894604 -16.636991 -42.804518 76.579988 -59.303682 48.405350 27.835298 39.370178 -14.426144 0.000000 0.000000 0.000000 -7.125000 0.000000 0.000000 0.323881 46.205097 -0.025088 0.000000 0.000000 0.000000 -14.882131 -9.584589 41.919267 -105.534361 -59.063133 -73.410328 -8.474234 6.109291 10.526227 0.000000 0.000000 0.000000 7.125000 0.000000 0.000000 16.219523 40.085302 2.026267
1.856682 17.022320 8.356588 -185.246938 -3.018526 -157.954379 0.000000 0.000000 0.000000 -21.587429 -10.899169 -18.425696 6.103546 14.527776 45.395705 1.764804 4.424192 24.073340 0.038666 -1.203629 -3.310212 0.000000 0.000000 0.000000 19.746982 9.985771 -12.201746 -4.141297 -12.345420 36.966160 -1.944444 -14.737407 25.460100 -1.646829 8.065143 -22.925136 -4.939886 -0.736088 0.758236 -1.125430 -1.062127 0.570514 1.616967 -0.567482 0.227493 0.793798 0.930027 -30.587298 1.711939 -4.126805 42.391549 -0.847045 -2.094758 24.007282 0.000000 0.000000 0.000000 18.143578 -16.354769 -44.091705 78.470082 -59.483375 50.032660 25.793130 36.330275 -13.702691 0.000000 0.000000 0.000000 -7.125000 0.000000 0.000000 -1.494442 45.136896 -0.022303 0.000000 0.000000 0.000000 -15.070239 -8.891836 41.559111 -107.449821 -58.808410 -75.050736 -8.428422 5.919464 10.133119 0.000000 0.000000 0.000000 7.125000 0.000000 0.000000 16.156820 39.700729 2.175853
1.860041 17.201558 8.169055 -185.256957 -3.167979 -158.096746 0.000000 0.000000 0.000000 -21.588661 -11.206437 -18.257871 6.245813 14.660635 45.957294 1.928510 4.217958 25.260719 0.015369 -0.724545 -1.991509 0.000000 0.000000 0.000000 19.722080 9.945600 -11.897304 -4.094598 -12.285266 36.748756 -2.486330 -15.342316 28.722088 -1.337553 7.290537 -20.593214 -4.879030 -0.759841 0.322725 -1.129643 -1.068239 0.435863 1.573179 -0.569228 0.332697 0.730519 1.014172 -30.240678 1.772944 -4.224982 42.787574 -0.855241 -2.181634 24.256286 0.000000 0.000000 0.000000 18.386715 -16.092235 -45.377976 80.314077 -59.634607 51.622455 23.570701 33.343792 -12.934149 0.000000 0.000000 0.000000 -7.125000 0.000000 0.000000 -3.428594 44.032221 -0.117362 0.000000 0.000000 0.000000 -15.237492 -8.205203 41.143012 -109.306150 -58.534471 -76.636432 -8.384377 5.824389 9.744082 0.000000 0.000000 0.000000 7.125000 0.000000 0.000000 16.095379 39.320226 2.322788
